<mxfile host="app.diagrams.net" modified="2022-11-24T16:34:20.160Z" agent="5.0 (Macintosh; Intel Mac OS X 10_15_7) AppleWebKit/537.36 (KHTML, like Gecko) Chrome/107.0.0.0 Safari/537.36" etag="04iWasPTc8SP3rLTX7hn" version="20.5.3" type="github">
  <diagram id="NjfbwW2NH3Iu1pzXM0LN" name="第 1 页">
    <mxGraphModel dx="1305" dy="1148" grid="1" gridSize="10" guides="1" tooltips="1" connect="1" arrows="1" fold="1" page="1" pageScale="1" pageWidth="827" pageHeight="1169" math="0" shadow="0">
      <root>
        <mxCell id="0" />
        <mxCell id="1" parent="0" />
        <mxCell id="kjhjxPwAItvc373IeSmL-128" value="" style="rounded=0;whiteSpace=wrap;html=1;movable=1;resizable=1;rotatable=1;deletable=1;editable=1;connectable=1;fillColor=#eeeeee;strokeColor=#36393d;" vertex="1" parent="1">
          <mxGeometry x="827" y="960" width="793" height="310" as="geometry" />
        </mxCell>
        <mxCell id="kjhjxPwAItvc373IeSmL-1" value="" style="rounded=0;whiteSpace=wrap;html=1;movable=1;resizable=1;rotatable=1;deletable=1;editable=1;connectable=1;" vertex="1" parent="1">
          <mxGeometry x="828" y="240" width="992" height="1580" as="geometry" />
        </mxCell>
        <mxCell id="kjhjxPwAItvc373IeSmL-2" value="&lt;font style=&quot;font-size: 14px;&quot;&gt;Zookeeper&lt;br&gt;注册中心&lt;/font&gt;" style="rounded=0;whiteSpace=wrap;html=1;" vertex="1" parent="1">
          <mxGeometry x="764" y="70" width="120" height="60" as="geometry" />
        </mxCell>
        <mxCell id="kjhjxPwAItvc373IeSmL-244" style="edgeStyle=orthogonalEdgeStyle;shape=flexArrow;rounded=0;orthogonalLoop=1;jettySize=auto;html=1;entryX=0;entryY=0.5;entryDx=0;entryDy=0;fontFamily=Helvetica;fontSize=14;fontColor=default;endSize=6;" edge="1" parent="1" source="kjhjxPwAItvc373IeSmL-3" target="kjhjxPwAItvc373IeSmL-239">
          <mxGeometry relative="1" as="geometry" />
        </mxCell>
        <mxCell id="kjhjxPwAItvc373IeSmL-3" value="ServiceConfig&lt;br&gt;服务实例(Ref)" style="rounded=0;whiteSpace=wrap;html=1;fontSize=14;fillColor=#ffcc99;strokeColor=#36393d;movable=1;resizable=1;rotatable=1;deletable=1;editable=1;connectable=1;" vertex="1" parent="1">
          <mxGeometry x="827" y="190" width="140" height="50" as="geometry" />
        </mxCell>
        <mxCell id="kjhjxPwAItvc373IeSmL-12" value="" style="edgeStyle=orthogonalEdgeStyle;rounded=0;orthogonalLoop=1;jettySize=auto;html=1;fontSize=14;" edge="1" parent="1" source="kjhjxPwAItvc373IeSmL-4" target="kjhjxPwAItvc373IeSmL-8">
          <mxGeometry relative="1" as="geometry" />
        </mxCell>
        <mxCell id="kjhjxPwAItvc373IeSmL-13" value="启动" style="edgeLabel;html=1;align=center;verticalAlign=middle;resizable=0;points=[];fontSize=14;" vertex="1" connectable="0" parent="kjhjxPwAItvc373IeSmL-12">
          <mxGeometry x="0.32" y="-3" relative="1" as="geometry">
            <mxPoint x="3" y="-8" as="offset" />
          </mxGeometry>
        </mxCell>
        <mxCell id="kjhjxPwAItvc373IeSmL-15" value="注册" style="edgeStyle=orthogonalEdgeStyle;rounded=0;orthogonalLoop=1;jettySize=auto;html=1;exitX=0.25;exitY=1;exitDx=0;exitDy=0;entryX=0.5;entryY=0;entryDx=0;entryDy=0;fontSize=14;" edge="1" parent="1" source="kjhjxPwAItvc373IeSmL-4" target="kjhjxPwAItvc373IeSmL-7">
          <mxGeometry relative="1" as="geometry" />
        </mxCell>
        <mxCell id="kjhjxPwAItvc373IeSmL-16" style="edgeStyle=orthogonalEdgeStyle;rounded=0;orthogonalLoop=1;jettySize=auto;html=1;exitX=0.75;exitY=1;exitDx=0;exitDy=0;entryX=0.5;entryY=0;entryDx=0;entryDy=0;fontSize=14;" edge="1" parent="1" source="kjhjxPwAItvc373IeSmL-4" target="kjhjxPwAItvc373IeSmL-9">
          <mxGeometry relative="1" as="geometry" />
        </mxCell>
        <mxCell id="kjhjxPwAItvc373IeSmL-17" value="启动" style="edgeLabel;html=1;align=center;verticalAlign=middle;resizable=0;points=[];fontSize=14;" vertex="1" connectable="0" parent="kjhjxPwAItvc373IeSmL-16">
          <mxGeometry x="-0.1647" y="-1" relative="1" as="geometry">
            <mxPoint x="14" y="-1" as="offset" />
          </mxGeometry>
        </mxCell>
        <mxCell id="kjhjxPwAItvc373IeSmL-4" value="&lt;span style=&quot;font-size: 14px;&quot;&gt;ModuleDeployer&lt;br&gt;prepare&lt;br&gt;①&lt;br&gt;&lt;/span&gt;" style="rounded=0;whiteSpace=wrap;html=1;fillColor=#cce5ff;strokeColor=#36393d;" vertex="1" parent="1">
          <mxGeometry x="1218" y="270" width="120" height="60" as="geometry" />
        </mxCell>
        <mxCell id="kjhjxPwAItvc373IeSmL-7" value="&lt;span style=&quot;font-size: 14px;&quot;&gt;ShutdownHook&lt;br&gt;退出时销毁资源&lt;br&gt;&lt;/span&gt;" style="rounded=0;whiteSpace=wrap;html=1;" vertex="1" parent="1">
          <mxGeometry x="1063" y="390" width="130" height="50" as="geometry" />
        </mxCell>
        <mxCell id="kjhjxPwAItvc373IeSmL-8" value="&lt;span style=&quot;font-size: 14px;&quot;&gt;ConfigCenter&lt;br&gt;配置中心&lt;br&gt;&lt;/span&gt;" style="rounded=0;whiteSpace=wrap;html=1;" vertex="1" parent="1">
          <mxGeometry x="1208" y="390" width="130" height="50" as="geometry" />
        </mxCell>
        <mxCell id="kjhjxPwAItvc373IeSmL-18" style="edgeStyle=orthogonalEdgeStyle;rounded=0;orthogonalLoop=1;jettySize=auto;html=1;exitX=0.75;exitY=0;exitDx=0;exitDy=0;fontSize=14;" edge="1" parent="1" source="kjhjxPwAItvc373IeSmL-9" target="kjhjxPwAItvc373IeSmL-11">
          <mxGeometry relative="1" as="geometry">
            <Array as="points">
              <mxPoint x="1473" y="390" />
              <mxPoint x="1473" y="360" />
              <mxPoint x="1433" y="360" />
            </Array>
          </mxGeometry>
        </mxCell>
        <mxCell id="kjhjxPwAItvc373IeSmL-19" value="组件" style="edgeLabel;html=1;align=center;verticalAlign=middle;resizable=0;points=[];fontSize=14;" vertex="1" connectable="0" parent="kjhjxPwAItvc373IeSmL-18">
          <mxGeometry x="0.1805" y="1" relative="1" as="geometry">
            <mxPoint x="-1" as="offset" />
          </mxGeometry>
        </mxCell>
        <mxCell id="kjhjxPwAItvc373IeSmL-9" value="&lt;span style=&quot;font-size: 14px;&quot;&gt;MetadataCenter&lt;br&gt;元数据中心&lt;br&gt;&lt;/span&gt;" style="rounded=0;whiteSpace=wrap;html=1;" vertex="1" parent="1">
          <mxGeometry x="1353" y="390" width="130" height="50" as="geometry" />
        </mxCell>
        <mxCell id="kjhjxPwAItvc373IeSmL-20" style="edgeStyle=orthogonalEdgeStyle;rounded=0;orthogonalLoop=1;jettySize=auto;html=1;exitX=0.5;exitY=0;exitDx=0;exitDy=0;entryX=1;entryY=0.5;entryDx=0;entryDy=0;fontSize=14;" edge="1" parent="1" source="kjhjxPwAItvc373IeSmL-11" target="kjhjxPwAItvc373IeSmL-2">
          <mxGeometry relative="1" as="geometry" />
        </mxCell>
        <mxCell id="kjhjxPwAItvc373IeSmL-21" value="元数据会上报到&lt;br&gt;zookeeper里去" style="edgeLabel;html=1;align=center;verticalAlign=middle;resizable=0;points=[];fontSize=14;" vertex="1" connectable="0" parent="kjhjxPwAItvc373IeSmL-20">
          <mxGeometry x="0.2131" y="1" relative="1" as="geometry">
            <mxPoint as="offset" />
          </mxGeometry>
        </mxCell>
        <mxCell id="kjhjxPwAItvc373IeSmL-11" value="&lt;span style=&quot;font-size: 14px;&quot;&gt;MetadataReport&lt;/span&gt;&lt;br style=&quot;font-size: 14px;&quot;&gt;&lt;span style=&quot;font-size: 14px;&quot;&gt;元数据上报&lt;/span&gt;" style="rounded=0;whiteSpace=wrap;html=1;" vertex="1" parent="1">
          <mxGeometry x="1373" y="270" width="120" height="60" as="geometry" />
        </mxCell>
        <mxCell id="kjhjxPwAItvc373IeSmL-27" style="edgeStyle=orthogonalEdgeStyle;rounded=0;orthogonalLoop=1;jettySize=auto;html=1;exitX=1;exitY=0.25;exitDx=0;exitDy=0;fontSize=14;" edge="1" parent="1" source="kjhjxPwAItvc373IeSmL-22" target="kjhjxPwAItvc373IeSmL-23">
          <mxGeometry relative="1" as="geometry" />
        </mxCell>
        <mxCell id="kjhjxPwAItvc373IeSmL-34" value="处理" style="edgeLabel;html=1;align=center;verticalAlign=middle;resizable=0;points=[];fontSize=14;" vertex="1" connectable="0" parent="kjhjxPwAItvc373IeSmL-27">
          <mxGeometry x="0.0182" relative="1" as="geometry">
            <mxPoint as="offset" />
          </mxGeometry>
        </mxCell>
        <mxCell id="kjhjxPwAItvc373IeSmL-28" style="edgeStyle=orthogonalEdgeStyle;rounded=0;orthogonalLoop=1;jettySize=auto;html=1;exitX=1;exitY=0.75;exitDx=0;exitDy=0;entryX=0;entryY=0.5;entryDx=0;entryDy=0;fontSize=14;" edge="1" parent="1" source="kjhjxPwAItvc373IeSmL-22" target="kjhjxPwAItvc373IeSmL-24">
          <mxGeometry relative="1" as="geometry" />
        </mxCell>
        <mxCell id="kjhjxPwAItvc373IeSmL-36" value="反射" style="edgeLabel;html=1;align=center;verticalAlign=middle;resizable=0;points=[];fontSize=14;" vertex="1" connectable="0" parent="kjhjxPwAItvc373IeSmL-28">
          <mxGeometry x="-0.0769" relative="1" as="geometry">
            <mxPoint as="offset" />
          </mxGeometry>
        </mxCell>
        <mxCell id="kjhjxPwAItvc373IeSmL-22" value="&lt;span style=&quot;font-size: 14px;&quot;&gt;dubbo服务实例&lt;br&gt;refresh&lt;br&gt;②&lt;br&gt;&lt;/span&gt;" style="rounded=0;whiteSpace=wrap;html=1;fillColor=#cce5ff;strokeColor=#36393d;" vertex="1" parent="1">
          <mxGeometry x="1068" y="490" width="120" height="60" as="geometry" />
        </mxCell>
        <mxCell id="kjhjxPwAItvc373IeSmL-35" value="" style="edgeStyle=orthogonalEdgeStyle;rounded=0;orthogonalLoop=1;jettySize=auto;html=1;fontSize=14;" edge="1" parent="1" source="kjhjxPwAItvc373IeSmL-23" target="kjhjxPwAItvc373IeSmL-24">
          <mxGeometry relative="1" as="geometry" />
        </mxCell>
        <mxCell id="kjhjxPwAItvc373IeSmL-23" value="&lt;span style=&quot;font-size: 14px;&quot;&gt;服务名称&lt;br&gt;dubbo.service前缀&lt;br&gt;&lt;/span&gt;" style="rounded=0;whiteSpace=wrap;html=1;" vertex="1" parent="1">
          <mxGeometry x="1243" y="450" width="130" height="50" as="geometry" />
        </mxCell>
        <mxCell id="kjhjxPwAItvc373IeSmL-32" style="edgeStyle=orthogonalEdgeStyle;rounded=0;orthogonalLoop=1;jettySize=auto;html=1;exitX=1;exitY=0.25;exitDx=0;exitDy=0;entryX=0;entryY=0.5;entryDx=0;entryDy=0;fontSize=14;" edge="1" parent="1" source="kjhjxPwAItvc373IeSmL-24" target="kjhjxPwAItvc373IeSmL-29">
          <mxGeometry relative="1" as="geometry" />
        </mxCell>
        <mxCell id="kjhjxPwAItvc373IeSmL-33" style="edgeStyle=orthogonalEdgeStyle;rounded=0;orthogonalLoop=1;jettySize=auto;html=1;exitX=1;exitY=0.75;exitDx=0;exitDy=0;entryX=0;entryY=0.5;entryDx=0;entryDy=0;fontSize=14;" edge="1" parent="1" source="kjhjxPwAItvc373IeSmL-24" target="kjhjxPwAItvc373IeSmL-31">
          <mxGeometry relative="1" as="geometry" />
        </mxCell>
        <mxCell id="kjhjxPwAItvc373IeSmL-24" value="&lt;span style=&quot;font-size: 14px;&quot;&gt;服务接口Class&lt;br&gt;接口中的Methods&lt;br&gt;&lt;/span&gt;" style="rounded=0;whiteSpace=wrap;html=1;" vertex="1" parent="1">
          <mxGeometry x="1243" y="540" width="130" height="50" as="geometry" />
        </mxCell>
        <mxCell id="kjhjxPwAItvc373IeSmL-29" value="&lt;span style=&quot;font-size: 14px;&quot;&gt;每个Method代表一个小接口&lt;br&gt;MethodConfig接口配置&lt;br&gt;&lt;/span&gt;" style="rounded=0;whiteSpace=wrap;html=1;" vertex="1" parent="1">
          <mxGeometry x="1413" y="500" width="193" height="50" as="geometry" />
        </mxCell>
        <mxCell id="kjhjxPwAItvc373IeSmL-31" value="&lt;span style=&quot;font-size: 14px;&quot;&gt;每个Method有多个args&lt;br&gt;ArgumentConfig接口参数配置&lt;br&gt;&lt;/span&gt;" style="rounded=0;whiteSpace=wrap;html=1;" vertex="1" parent="1">
          <mxGeometry x="1413" y="580" width="193" height="50" as="geometry" />
        </mxCell>
        <mxCell id="kjhjxPwAItvc373IeSmL-39" value="" style="edgeStyle=orthogonalEdgeStyle;rounded=0;orthogonalLoop=1;jettySize=auto;html=1;fontSize=14;" edge="1" parent="1" source="kjhjxPwAItvc373IeSmL-37" target="kjhjxPwAItvc373IeSmL-38">
          <mxGeometry relative="1" as="geometry" />
        </mxCell>
        <mxCell id="kjhjxPwAItvc373IeSmL-37" value="&lt;span style=&quot;font-size: 14px;&quot;&gt;dubbo服务实例&lt;br&gt;init&lt;br&gt;③&lt;br&gt;&lt;/span&gt;" style="rounded=0;whiteSpace=wrap;html=1;fillColor=#cce5ff;strokeColor=#36393d;" vertex="1" parent="1">
          <mxGeometry x="1579" y="270" width="120" height="60" as="geometry" />
        </mxCell>
        <mxCell id="kjhjxPwAItvc373IeSmL-40" style="edgeStyle=orthogonalEdgeStyle;rounded=0;orthogonalLoop=1;jettySize=auto;html=1;entryX=1;entryY=0.5;entryDx=0;entryDy=0;fontSize=14;" edge="1" parent="1" source="kjhjxPwAItvc373IeSmL-38" target="kjhjxPwAItvc373IeSmL-11">
          <mxGeometry relative="1" as="geometry" />
        </mxCell>
        <mxCell id="kjhjxPwAItvc373IeSmL-38" value="&lt;span style=&quot;font-size: 14px;&quot;&gt;ServiceMetadata&lt;br&gt;接口+实现&lt;br&gt;&lt;/span&gt;" style="rounded=0;whiteSpace=wrap;html=1;" vertex="1" parent="1">
          <mxGeometry x="1574" y="390" width="130" height="50" as="geometry" />
        </mxCell>
        <mxCell id="kjhjxPwAItvc373IeSmL-45" style="edgeStyle=orthogonalEdgeStyle;rounded=0;orthogonalLoop=1;jettySize=auto;html=1;exitX=1;exitY=0.25;exitDx=0;exitDy=0;fontSize=14;" edge="1" parent="1" source="kjhjxPwAItvc373IeSmL-41" target="kjhjxPwAItvc373IeSmL-42">
          <mxGeometry relative="1" as="geometry" />
        </mxCell>
        <mxCell id="kjhjxPwAItvc373IeSmL-46" value="使用" style="edgeLabel;html=1;align=center;verticalAlign=middle;resizable=0;points=[];fontSize=14;" vertex="1" connectable="0" parent="kjhjxPwAItvc373IeSmL-45">
          <mxGeometry x="-0.0471" y="3" relative="1" as="geometry">
            <mxPoint x="1" as="offset" />
          </mxGeometry>
        </mxCell>
        <mxCell id="kjhjxPwAItvc373IeSmL-57" style="edgeStyle=orthogonalEdgeStyle;rounded=0;orthogonalLoop=1;jettySize=auto;html=1;exitX=0.75;exitY=1;exitDx=0;exitDy=0;entryX=0;entryY=0.5;entryDx=0;entryDy=0;fontSize=14;" edge="1" parent="1" source="kjhjxPwAItvc373IeSmL-41" target="kjhjxPwAItvc373IeSmL-56">
          <mxGeometry relative="1" as="geometry" />
        </mxCell>
        <mxCell id="kjhjxPwAItvc373IeSmL-58" value="生成" style="edgeLabel;html=1;align=center;verticalAlign=middle;resizable=0;points=[];fontSize=14;" vertex="1" connectable="0" parent="kjhjxPwAItvc373IeSmL-57">
          <mxGeometry x="-0.3765" y="-1" relative="1" as="geometry">
            <mxPoint as="offset" />
          </mxGeometry>
        </mxCell>
        <mxCell id="kjhjxPwAItvc373IeSmL-60" style="edgeStyle=orthogonalEdgeStyle;rounded=0;orthogonalLoop=1;jettySize=auto;html=1;entryX=0;entryY=0.5;entryDx=0;entryDy=0;fontSize=14;" edge="1" parent="1" source="kjhjxPwAItvc373IeSmL-41" target="kjhjxPwAItvc373IeSmL-59">
          <mxGeometry relative="1" as="geometry">
            <Array as="points">
              <mxPoint x="1129" y="885" />
            </Array>
          </mxGeometry>
        </mxCell>
        <mxCell id="kjhjxPwAItvc373IeSmL-61" value="处理(非必须)" style="edgeLabel;html=1;align=center;verticalAlign=middle;resizable=0;points=[];fontSize=14;" vertex="1" connectable="0" parent="kjhjxPwAItvc373IeSmL-60">
          <mxGeometry x="0.0251" y="2" relative="1" as="geometry">
            <mxPoint x="19" y="-13" as="offset" />
          </mxGeometry>
        </mxCell>
        <mxCell id="kjhjxPwAItvc373IeSmL-129" style="edgeStyle=orthogonalEdgeStyle;rounded=0;orthogonalLoop=1;jettySize=auto;html=1;exitX=0.25;exitY=1;exitDx=0;exitDy=0;entryX=0;entryY=0.5;entryDx=0;entryDy=0;fontFamily=Helvetica;fontSize=14;fontColor=default;" edge="1" parent="1" source="kjhjxPwAItvc373IeSmL-41" target="kjhjxPwAItvc373IeSmL-64">
          <mxGeometry relative="1" as="geometry" />
        </mxCell>
        <mxCell id="kjhjxPwAItvc373IeSmL-130" value="doExportUrlsFor1Protocol" style="edgeLabel;html=1;align=center;verticalAlign=middle;resizable=0;points=[];fontSize=14;fontFamily=Helvetica;fontColor=default;" vertex="1" connectable="0" parent="kjhjxPwAItvc373IeSmL-129">
          <mxGeometry x="0.1996" relative="1" as="geometry">
            <mxPoint x="47" as="offset" />
          </mxGeometry>
        </mxCell>
        <mxCell id="kjhjxPwAItvc373IeSmL-41" value="&lt;span style=&quot;font-size: 14px;&quot;&gt;dubbo服务实例&lt;br&gt;export&lt;br&gt;④&lt;br&gt;&lt;/span&gt;" style="rounded=0;whiteSpace=wrap;html=1;fillColor=#cce5ff;strokeColor=#36393d;" vertex="1" parent="1">
          <mxGeometry x="1068" y="660" width="120" height="60" as="geometry" />
        </mxCell>
        <mxCell id="kjhjxPwAItvc373IeSmL-47" style="edgeStyle=orthogonalEdgeStyle;rounded=0;orthogonalLoop=1;jettySize=auto;html=1;entryX=0.5;entryY=0;entryDx=0;entryDy=0;fontSize=14;" edge="1" parent="1" source="kjhjxPwAItvc373IeSmL-42" target="kjhjxPwAItvc373IeSmL-44">
          <mxGeometry relative="1" as="geometry" />
        </mxCell>
        <mxCell id="kjhjxPwAItvc373IeSmL-48" value="获取" style="edgeLabel;html=1;align=center;verticalAlign=middle;resizable=0;points=[];fontSize=14;" vertex="1" connectable="0" parent="kjhjxPwAItvc373IeSmL-47">
          <mxGeometry x="-0.1" relative="1" as="geometry">
            <mxPoint as="offset" />
          </mxGeometry>
        </mxCell>
        <mxCell id="kjhjxPwAItvc373IeSmL-42" value="&lt;span style=&quot;font-size: 14px;&quot;&gt;Model组件体系&lt;br&gt;&lt;/span&gt;" style="rounded=0;whiteSpace=wrap;html=1;" vertex="1" parent="1">
          <mxGeometry x="1243" y="610" width="130" height="50" as="geometry" />
        </mxCell>
        <mxCell id="kjhjxPwAItvc373IeSmL-51" style="edgeStyle=orthogonalEdgeStyle;rounded=0;orthogonalLoop=1;jettySize=auto;html=1;exitX=1;exitY=0.25;exitDx=0;exitDy=0;entryX=0;entryY=0.5;entryDx=0;entryDy=0;fontSize=14;" edge="1" parent="1" source="kjhjxPwAItvc373IeSmL-44" target="kjhjxPwAItvc373IeSmL-49">
          <mxGeometry relative="1" as="geometry" />
        </mxCell>
        <mxCell id="kjhjxPwAItvc373IeSmL-54" value="注册" style="edgeLabel;html=1;align=center;verticalAlign=middle;resizable=0;points=[];fontSize=14;" vertex="1" connectable="0" parent="kjhjxPwAItvc373IeSmL-51">
          <mxGeometry x="-0.0481" y="-1" relative="1" as="geometry">
            <mxPoint as="offset" />
          </mxGeometry>
        </mxCell>
        <mxCell id="kjhjxPwAItvc373IeSmL-52" style="edgeStyle=orthogonalEdgeStyle;rounded=0;orthogonalLoop=1;jettySize=auto;html=1;exitX=1;exitY=0.75;exitDx=0;exitDy=0;entryX=0;entryY=0.5;entryDx=0;entryDy=0;fontSize=14;" edge="1" parent="1" source="kjhjxPwAItvc373IeSmL-44" target="kjhjxPwAItvc373IeSmL-50">
          <mxGeometry relative="1" as="geometry" />
        </mxCell>
        <mxCell id="kjhjxPwAItvc373IeSmL-55" value="注册" style="edgeLabel;html=1;align=center;verticalAlign=middle;resizable=0;points=[];fontSize=14;" vertex="1" connectable="0" parent="kjhjxPwAItvc373IeSmL-52">
          <mxGeometry x="0.123" y="1" relative="1" as="geometry">
            <mxPoint y="-5" as="offset" />
          </mxGeometry>
        </mxCell>
        <mxCell id="kjhjxPwAItvc373IeSmL-44" value="&lt;span style=&quot;font-size: 14px;&quot;&gt;Repository组件&lt;br&gt;服务数据存储&lt;br&gt;&lt;/span&gt;" style="rounded=0;whiteSpace=wrap;html=1;" vertex="1" parent="1">
          <mxGeometry x="1243" y="700" width="130" height="50" as="geometry" />
        </mxCell>
        <mxCell id="kjhjxPwAItvc373IeSmL-49" value="&lt;span style=&quot;font-size: 14px;&quot;&gt;Service&lt;br&gt;服务实例数据&lt;br&gt;&lt;/span&gt;" style="rounded=0;whiteSpace=wrap;html=1;" vertex="1" parent="1">
          <mxGeometry x="1429" y="650" width="130" height="50" as="geometry" />
        </mxCell>
        <mxCell id="kjhjxPwAItvc373IeSmL-50" value="&lt;span style=&quot;font-size: 14px;&quot;&gt;ProviderModel&lt;br&gt;服务提供者数据&lt;br&gt;&lt;/span&gt;" style="rounded=0;whiteSpace=wrap;html=1;" vertex="1" parent="1">
          <mxGeometry x="1429" y="750" width="130" height="50" as="geometry" />
        </mxCell>
        <mxCell id="kjhjxPwAItvc373IeSmL-56" value="&lt;span style=&quot;font-size: 14px;&quot;&gt;服务注册URLS&lt;br&gt;(针对zk的地址)&lt;br&gt;&lt;/span&gt;" style="rounded=0;whiteSpace=wrap;html=1;fillColor=#cdeb8b;strokeColor=#36393d;" vertex="1" parent="1">
          <mxGeometry x="1243" y="780" width="130" height="50" as="geometry" />
        </mxCell>
        <mxCell id="kjhjxPwAItvc373IeSmL-62" style="edgeStyle=orthogonalEdgeStyle;rounded=0;orthogonalLoop=1;jettySize=auto;html=1;exitX=1;exitY=0.5;exitDx=0;exitDy=0;fontSize=14;" edge="1" parent="1" source="kjhjxPwAItvc373IeSmL-59" target="kjhjxPwAItvc373IeSmL-44">
          <mxGeometry relative="1" as="geometry">
            <Array as="points">
              <mxPoint x="1393" y="885" />
              <mxPoint x="1393" y="770" />
              <mxPoint x="1308" y="770" />
            </Array>
          </mxGeometry>
        </mxCell>
        <mxCell id="kjhjxPwAItvc373IeSmL-63" value="注册Repository&lt;br&gt;(如果指定path)" style="edgeLabel;html=1;align=center;verticalAlign=middle;resizable=0;points=[];fontSize=14;" vertex="1" connectable="0" parent="kjhjxPwAItvc373IeSmL-62">
          <mxGeometry x="-0.3833" y="-2" relative="1" as="geometry">
            <mxPoint x="34" y="-1" as="offset" />
          </mxGeometry>
        </mxCell>
        <mxCell id="kjhjxPwAItvc373IeSmL-59" value="&lt;span style=&quot;font-size: 14px;&quot;&gt;暴露&lt;br&gt;接口信息&lt;br&gt;&lt;/span&gt;" style="rounded=0;whiteSpace=wrap;html=1;" vertex="1" parent="1">
          <mxGeometry x="1243" y="860" width="130" height="50" as="geometry" />
        </mxCell>
        <mxCell id="kjhjxPwAItvc373IeSmL-132" style="edgeStyle=orthogonalEdgeStyle;rounded=0;orthogonalLoop=1;jettySize=auto;html=1;entryX=0;entryY=0.5;entryDx=0;entryDy=0;fontFamily=Helvetica;fontSize=14;fontColor=default;" edge="1" parent="1" source="kjhjxPwAItvc373IeSmL-64" target="kjhjxPwAItvc373IeSmL-131">
          <mxGeometry relative="1" as="geometry" />
        </mxCell>
        <mxCell id="kjhjxPwAItvc373IeSmL-133" value="生成" style="edgeLabel;html=1;align=center;verticalAlign=middle;resizable=0;points=[];fontSize=14;fontFamily=Helvetica;fontColor=default;" vertex="1" connectable="0" parent="kjhjxPwAItvc373IeSmL-132">
          <mxGeometry x="-0.325" y="2" relative="1" as="geometry">
            <mxPoint x="4" as="offset" />
          </mxGeometry>
        </mxCell>
        <mxCell id="kjhjxPwAItvc373IeSmL-64" value="&lt;span style=&quot;font-size: 14px;&quot;&gt;核心发布流程&lt;br&gt;&lt;/span&gt;" style="rounded=0;whiteSpace=wrap;html=1;fillColor=#cdeb8b;strokeColor=#36393d;" vertex="1" parent="1">
          <mxGeometry x="1431" y="900" width="130" height="50" as="geometry" />
        </mxCell>
        <mxCell id="kjhjxPwAItvc373IeSmL-222" style="edgeStyle=orthogonalEdgeStyle;rounded=0;orthogonalLoop=1;jettySize=auto;html=1;exitX=0.5;exitY=0;exitDx=0;exitDy=0;entryX=0;entryY=0.5;entryDx=0;entryDy=0;fontFamily=Helvetica;fontSize=14;fontColor=default;" edge="1" parent="1" source="kjhjxPwAItvc373IeSmL-99" target="kjhjxPwAItvc373IeSmL-176">
          <mxGeometry relative="1" as="geometry" />
        </mxCell>
        <mxCell id="kjhjxPwAItvc373IeSmL-223" value="调用" style="edgeLabel;html=1;align=center;verticalAlign=middle;resizable=0;points=[];fontSize=14;fontFamily=Helvetica;fontColor=default;" vertex="1" connectable="0" parent="kjhjxPwAItvc373IeSmL-222">
          <mxGeometry x="-0.2088" y="-1" relative="1" as="geometry">
            <mxPoint x="-1" y="13" as="offset" />
          </mxGeometry>
        </mxCell>
        <mxCell id="kjhjxPwAItvc373IeSmL-99" value="&lt;span style=&quot;font-size: 14px;&quot;&gt;Invocation&lt;br&gt;具体一次调用请求&lt;br&gt;&lt;/span&gt;" style="rounded=0;whiteSpace=wrap;html=1;movable=1;resizable=1;rotatable=1;deletable=1;editable=1;connectable=1;" vertex="1" parent="1">
          <mxGeometry x="890" y="1100" width="130" height="50" as="geometry" />
        </mxCell>
        <mxCell id="kjhjxPwAItvc373IeSmL-202" style="edgeStyle=orthogonalEdgeStyle;rounded=0;orthogonalLoop=1;jettySize=auto;html=1;exitX=0;exitY=0.5;exitDx=0;exitDy=0;entryX=1;entryY=0.5;entryDx=0;entryDy=0;fontFamily=Helvetica;fontSize=14;fontColor=default;" edge="1" parent="1" source="kjhjxPwAItvc373IeSmL-109" target="kjhjxPwAItvc373IeSmL-196">
          <mxGeometry relative="1" as="geometry" />
        </mxCell>
        <mxCell id="kjhjxPwAItvc373IeSmL-203" value="add" style="edgeLabel;html=1;align=center;verticalAlign=middle;resizable=0;points=[];fontSize=14;fontFamily=Helvetica;fontColor=default;" vertex="1" connectable="0" parent="kjhjxPwAItvc373IeSmL-202">
          <mxGeometry x="-0.0263" y="-1" relative="1" as="geometry">
            <mxPoint x="1" as="offset" />
          </mxGeometry>
        </mxCell>
        <mxCell id="kjhjxPwAItvc373IeSmL-109" value="&lt;span style=&quot;font-size: 14px;&quot;&gt;InjvmExporter&lt;br&gt;&lt;/span&gt;&lt;span style=&quot;font-size: 14px;&quot;&gt;代表一个服务实例&lt;br&gt;发布出去&lt;br&gt;&lt;/span&gt;" style="rounded=0;whiteSpace=wrap;html=1;movable=1;resizable=1;rotatable=1;deletable=1;editable=1;connectable=1;fillColor=#cdeb8b;strokeColor=#36393d;" vertex="1" parent="1">
          <mxGeometry x="1070" y="1190" width="130" height="50" as="geometry" />
        </mxCell>
        <mxCell id="kjhjxPwAItvc373IeSmL-228" style="edgeStyle=orthogonalEdgeStyle;rounded=0;orthogonalLoop=1;jettySize=auto;html=1;exitX=0;exitY=0.5;exitDx=0;exitDy=0;fontFamily=Helvetica;fontSize=14;fontColor=default;" edge="1" parent="1" source="kjhjxPwAItvc373IeSmL-112" target="kjhjxPwAItvc373IeSmL-99">
          <mxGeometry relative="1" as="geometry" />
        </mxCell>
        <mxCell id="kjhjxPwAItvc373IeSmL-229" value="调用" style="edgeLabel;html=1;align=center;verticalAlign=middle;resizable=0;points=[];fontSize=14;fontFamily=Helvetica;fontColor=default;" vertex="1" connectable="0" parent="kjhjxPwAItvc373IeSmL-228">
          <mxGeometry x="-0.2619" y="-4" relative="1" as="geometry">
            <mxPoint x="-6" y="2" as="offset" />
          </mxGeometry>
        </mxCell>
        <mxCell id="kjhjxPwAItvc373IeSmL-230" style="edgeStyle=orthogonalEdgeStyle;rounded=0;orthogonalLoop=1;jettySize=auto;html=1;entryX=0.5;entryY=0;entryDx=0;entryDy=0;fontFamily=Helvetica;fontSize=14;fontColor=default;" edge="1" parent="1" source="kjhjxPwAItvc373IeSmL-112" target="kjhjxPwAItvc373IeSmL-109">
          <mxGeometry relative="1" as="geometry" />
        </mxCell>
        <mxCell id="kjhjxPwAItvc373IeSmL-231" value="发布" style="edgeLabel;html=1;align=center;verticalAlign=middle;resizable=0;points=[];fontSize=14;fontFamily=Helvetica;fontColor=default;" vertex="1" connectable="0" parent="kjhjxPwAItvc373IeSmL-230">
          <mxGeometry x="-0.25" y="2" relative="1" as="geometry">
            <mxPoint as="offset" />
          </mxGeometry>
        </mxCell>
        <mxCell id="kjhjxPwAItvc373IeSmL-112" value="&lt;span style=&quot;font-size: 14px;&quot;&gt;InjvmProtocol&lt;br&gt;协议组件&lt;br&gt;&lt;/span&gt;" style="rounded=0;whiteSpace=wrap;html=1;movable=1;resizable=1;rotatable=1;deletable=1;editable=1;connectable=1;" vertex="1" parent="1">
          <mxGeometry x="1070" y="1100" width="130" height="50" as="geometry" />
        </mxCell>
        <mxCell id="kjhjxPwAItvc373IeSmL-208" style="edgeStyle=orthogonalEdgeStyle;rounded=0;orthogonalLoop=1;jettySize=auto;html=1;entryX=1;entryY=0.5;entryDx=0;entryDy=0;fontFamily=Helvetica;fontSize=14;fontColor=default;" edge="1" parent="1" source="kjhjxPwAItvc373IeSmL-131" target="kjhjxPwAItvc373IeSmL-135">
          <mxGeometry relative="1" as="geometry">
            <Array as="points">
              <mxPoint x="1790" y="925" />
              <mxPoint x="1790" y="1315" />
            </Array>
          </mxGeometry>
        </mxCell>
        <mxCell id="kjhjxPwAItvc373IeSmL-212" value="发布" style="edgeLabel;html=1;align=center;verticalAlign=middle;resizable=0;points=[];fontSize=14;fontFamily=Helvetica;fontColor=default;" vertex="1" connectable="0" parent="kjhjxPwAItvc373IeSmL-208">
          <mxGeometry x="0.2279" y="-1" relative="1" as="geometry">
            <mxPoint as="offset" />
          </mxGeometry>
        </mxCell>
        <mxCell id="kjhjxPwAItvc373IeSmL-209" style="edgeStyle=orthogonalEdgeStyle;rounded=0;orthogonalLoop=1;jettySize=auto;html=1;exitX=1;exitY=0.5;exitDx=0;exitDy=0;entryX=1;entryY=0.5;entryDx=0;entryDy=0;fontFamily=Helvetica;fontSize=14;fontColor=default;" edge="1" parent="1" source="kjhjxPwAItvc373IeSmL-131" target="kjhjxPwAItvc373IeSmL-152">
          <mxGeometry relative="1" as="geometry">
            <Array as="points">
              <mxPoint x="1790" y="925" />
              <mxPoint x="1790" y="1002" />
            </Array>
          </mxGeometry>
        </mxCell>
        <mxCell id="kjhjxPwAItvc373IeSmL-211" value="发布" style="edgeLabel;html=1;align=center;verticalAlign=middle;resizable=0;points=[];fontSize=14;fontFamily=Helvetica;fontColor=default;" vertex="1" connectable="0" parent="kjhjxPwAItvc373IeSmL-209">
          <mxGeometry x="-0.094" y="3" relative="1" as="geometry">
            <mxPoint as="offset" />
          </mxGeometry>
        </mxCell>
        <mxCell id="kjhjxPwAItvc373IeSmL-131" value="&lt;span style=&quot;font-size: 14px;&quot;&gt;服务实例URL&lt;br&gt;dubbo://服务实例信息&lt;br&gt;&lt;/span&gt;" style="rounded=0;whiteSpace=wrap;html=1;" vertex="1" parent="1">
          <mxGeometry x="1635" y="900" width="140" height="50" as="geometry" />
        </mxCell>
        <mxCell id="kjhjxPwAItvc373IeSmL-177" style="edgeStyle=orthogonalEdgeStyle;rounded=0;orthogonalLoop=1;jettySize=auto;html=1;exitX=0;exitY=0.5;exitDx=0;exitDy=0;entryX=1;entryY=0.5;entryDx=0;entryDy=0;fontFamily=Helvetica;fontSize=14;fontColor=default;" edge="1" parent="1" source="kjhjxPwAItvc373IeSmL-143" target="kjhjxPwAItvc373IeSmL-176">
          <mxGeometry relative="1" as="geometry" />
        </mxCell>
        <mxCell id="kjhjxPwAItvc373IeSmL-219" value="获取" style="edgeLabel;html=1;align=center;verticalAlign=middle;resizable=0;points=[];fontSize=14;fontFamily=Helvetica;fontColor=default;" vertex="1" connectable="0" parent="kjhjxPwAItvc373IeSmL-177">
          <mxGeometry x="-0.0645" relative="1" as="geometry">
            <mxPoint x="1" as="offset" />
          </mxGeometry>
        </mxCell>
        <mxCell id="kjhjxPwAItvc373IeSmL-143" value="&lt;span style=&quot;font-size: 14px;&quot;&gt;LocalURL&lt;br&gt;injvm://服务实例信息&lt;br&gt;&lt;/span&gt;" style="rounded=0;whiteSpace=wrap;html=1;movable=1;resizable=1;rotatable=1;deletable=1;editable=1;connectable=1;" vertex="1" parent="1">
          <mxGeometry x="1431" y="977" width="137" height="50" as="geometry" />
        </mxCell>
        <mxCell id="kjhjxPwAItvc373IeSmL-148" value="本地暴露" style="rounded=0;whiteSpace=wrap;html=1;labelBackgroundColor=default;fontFamily=Helvetica;fontSize=14;fontColor=default;fillColor=none;gradientColor=none;movable=1;resizable=1;rotatable=1;deletable=1;editable=1;connectable=1;" vertex="1" parent="1">
          <mxGeometry x="827" y="960" width="113" height="40" as="geometry" />
        </mxCell>
        <mxCell id="kjhjxPwAItvc373IeSmL-150" value="" style="rounded=0;whiteSpace=wrap;html=1;movable=0;resizable=0;rotatable=0;deletable=0;editable=0;connectable=0;fillColor=#f9f7ed;strokeColor=#36393d;" vertex="1" parent="1">
          <mxGeometry x="827" y="1270" width="793" height="550" as="geometry" />
        </mxCell>
        <mxCell id="kjhjxPwAItvc373IeSmL-151" value="远程暴露" style="rounded=0;whiteSpace=wrap;html=1;labelBackgroundColor=default;fontFamily=Helvetica;fontSize=14;fontColor=default;fillColor=none;gradientColor=none;movable=1;resizable=1;rotatable=1;deletable=1;editable=1;connectable=1;" vertex="1" parent="1">
          <mxGeometry x="827" y="1270" width="113" height="40" as="geometry" />
        </mxCell>
        <mxCell id="kjhjxPwAItvc373IeSmL-206" style="edgeStyle=orthogonalEdgeStyle;rounded=0;orthogonalLoop=1;jettySize=auto;html=1;exitX=0;exitY=0.5;exitDx=0;exitDy=0;entryX=1;entryY=0.5;entryDx=0;entryDy=0;fontFamily=Helvetica;fontSize=14;fontColor=default;" edge="1" parent="1" source="kjhjxPwAItvc373IeSmL-152" target="kjhjxPwAItvc373IeSmL-143">
          <mxGeometry relative="1" as="geometry" />
        </mxCell>
        <mxCell id="kjhjxPwAItvc373IeSmL-152" value="&lt;span style=&quot;font-size: 14px;&quot;&gt;exportLocal&lt;br&gt;本地服务实例&lt;br&gt;发布(默认优先)&lt;br&gt;&lt;/span&gt;" style="rounded=0;whiteSpace=wrap;html=1;fillColor=#cce5ff;strokeColor=#36393d;" vertex="1" parent="1">
          <mxGeometry x="1635" y="977" width="130" height="50" as="geometry" />
        </mxCell>
        <mxCell id="kjhjxPwAItvc373IeSmL-169" style="edgeStyle=orthogonalEdgeStyle;rounded=0;orthogonalLoop=1;jettySize=auto;html=1;exitX=0;exitY=0.5;exitDx=0;exitDy=0;entryX=1;entryY=0.5;entryDx=0;entryDy=0;fontFamily=Helvetica;fontSize=14;fontColor=default;" edge="1" parent="1" source="kjhjxPwAItvc373IeSmL-166" target="kjhjxPwAItvc373IeSmL-168">
          <mxGeometry relative="1" as="geometry" />
        </mxCell>
        <mxCell id="kjhjxPwAItvc373IeSmL-170" value="doLocalExport" style="edgeLabel;html=1;align=center;verticalAlign=middle;resizable=0;points=[];fontSize=14;fontFamily=Helvetica;fontColor=default;" vertex="1" connectable="0" parent="kjhjxPwAItvc373IeSmL-169">
          <mxGeometry x="-0.029" y="2" relative="1" as="geometry">
            <mxPoint y="-4" as="offset" />
          </mxGeometry>
        </mxCell>
        <mxCell id="kjhjxPwAItvc373IeSmL-270" value="服务注册" style="edgeStyle=orthogonalEdgeStyle;rounded=0;orthogonalLoop=1;jettySize=auto;html=1;exitX=0.5;exitY=1;exitDx=0;exitDy=0;entryX=0.5;entryY=0;entryDx=0;entryDy=0;fontFamily=Helvetica;fontSize=14;fontColor=default;endSize=6;" edge="1" parent="1" source="kjhjxPwAItvc373IeSmL-166" target="kjhjxPwAItvc373IeSmL-267">
          <mxGeometry relative="1" as="geometry" />
        </mxCell>
        <mxCell id="kjhjxPwAItvc373IeSmL-272" style="edgeStyle=orthogonalEdgeStyle;rounded=0;orthogonalLoop=1;jettySize=auto;html=1;exitX=1;exitY=0.75;exitDx=0;exitDy=0;fontFamily=Helvetica;fontSize=14;fontColor=default;endSize=6;entryX=0.5;entryY=0;entryDx=0;entryDy=0;" edge="1" parent="1" target="kjhjxPwAItvc373IeSmL-271">
          <mxGeometry relative="1" as="geometry">
            <mxPoint x="1357" y="1327.5" as="sourcePoint" />
            <mxPoint x="1541" y="1390" as="targetPoint" />
            <Array as="points">
              <mxPoint x="1357" y="1350" />
              <mxPoint x="1543" y="1350" />
            </Array>
          </mxGeometry>
        </mxCell>
        <mxCell id="kjhjxPwAItvc373IeSmL-166" value="&lt;span style=&quot;font-size: 14px;&quot;&gt;RegistryProtocol&lt;br&gt;&lt;/span&gt;" style="rounded=0;whiteSpace=wrap;html=1;" vertex="1" parent="1">
          <mxGeometry x="1247" y="1290" width="130" height="50" as="geometry" />
        </mxCell>
        <mxCell id="kjhjxPwAItvc373IeSmL-237" style="edgeStyle=orthogonalEdgeStyle;rounded=0;orthogonalLoop=1;jettySize=auto;html=1;exitX=0.5;exitY=1;exitDx=0;exitDy=0;entryX=0.5;entryY=0;entryDx=0;entryDy=0;fontFamily=Helvetica;fontSize=14;fontColor=default;" edge="1" parent="1" source="kjhjxPwAItvc373IeSmL-168" target="kjhjxPwAItvc373IeSmL-171">
          <mxGeometry relative="1" as="geometry" />
        </mxCell>
        <mxCell id="kjhjxPwAItvc373IeSmL-238" value="发布" style="edgeLabel;html=1;align=center;verticalAlign=middle;resizable=0;points=[];fontSize=14;fontFamily=Helvetica;fontColor=default;" vertex="1" connectable="0" parent="kjhjxPwAItvc373IeSmL-237">
          <mxGeometry x="-0.25" y="2" relative="1" as="geometry">
            <mxPoint as="offset" />
          </mxGeometry>
        </mxCell>
        <mxCell id="kjhjxPwAItvc373IeSmL-250" style="edgeStyle=orthogonalEdgeStyle;rounded=0;orthogonalLoop=1;jettySize=auto;html=1;exitX=1;exitY=0.75;exitDx=0;exitDy=0;fontFamily=Helvetica;fontSize=14;fontColor=default;endSize=6;" edge="1" parent="1" source="kjhjxPwAItvc373IeSmL-168" target="kjhjxPwAItvc373IeSmL-246">
          <mxGeometry relative="1" as="geometry" />
        </mxCell>
        <mxCell id="kjhjxPwAItvc373IeSmL-256" value="调用" style="edgeLabel;html=1;align=center;verticalAlign=middle;resizable=0;points=[];fontSize=14;fontFamily=Helvetica;fontColor=default;" vertex="1" connectable="0" parent="kjhjxPwAItvc373IeSmL-250">
          <mxGeometry x="0.5897" y="3" relative="1" as="geometry">
            <mxPoint x="-3" as="offset" />
          </mxGeometry>
        </mxCell>
        <mxCell id="kjhjxPwAItvc373IeSmL-168" value="&lt;span style=&quot;font-size: 14px;&quot;&gt;DubboProtocol&lt;br&gt;&lt;/span&gt;" style="rounded=0;whiteSpace=wrap;html=1;" vertex="1" parent="1">
          <mxGeometry x="990" y="1290" width="130" height="50" as="geometry" />
        </mxCell>
        <mxCell id="kjhjxPwAItvc373IeSmL-201" style="edgeStyle=orthogonalEdgeStyle;rounded=0;orthogonalLoop=1;jettySize=auto;html=1;exitX=0;exitY=0.5;exitDx=0;exitDy=0;fontFamily=Helvetica;fontSize=14;fontColor=default;" edge="1" parent="1" source="kjhjxPwAItvc373IeSmL-171" target="kjhjxPwAItvc373IeSmL-196">
          <mxGeometry relative="1" as="geometry" />
        </mxCell>
        <mxCell id="kjhjxPwAItvc373IeSmL-204" value="add" style="edgeLabel;html=1;align=center;verticalAlign=middle;resizable=0;points=[];fontSize=14;fontFamily=Helvetica;fontColor=default;" vertex="1" connectable="0" parent="kjhjxPwAItvc373IeSmL-201">
          <mxGeometry x="0.2933" y="2" relative="1" as="geometry">
            <mxPoint x="1" as="offset" />
          </mxGeometry>
        </mxCell>
        <mxCell id="kjhjxPwAItvc373IeSmL-171" value="&lt;span style=&quot;font-size: 14px;&quot;&gt;DubboExporter&lt;br&gt;代表一个服务实例发布出去&lt;br&gt;&lt;/span&gt;" style="rounded=0;whiteSpace=wrap;html=1;fillColor=#cdeb8b;strokeColor=#36393d;" vertex="1" parent="1">
          <mxGeometry x="990" y="1380" width="130" height="50" as="geometry" />
        </mxCell>
        <mxCell id="kjhjxPwAItvc373IeSmL-232" style="edgeStyle=orthogonalEdgeStyle;rounded=0;orthogonalLoop=1;jettySize=auto;html=1;exitX=0;exitY=0.75;exitDx=0;exitDy=0;fontFamily=Helvetica;fontSize=14;fontColor=default;" edge="1" parent="1" source="kjhjxPwAItvc373IeSmL-176" target="kjhjxPwAItvc373IeSmL-112">
          <mxGeometry relative="1" as="geometry" />
        </mxCell>
        <mxCell id="kjhjxPwAItvc373IeSmL-233" value="export" style="edgeLabel;html=1;align=center;verticalAlign=middle;resizable=0;points=[];fontSize=14;fontFamily=Helvetica;fontColor=default;" vertex="1" connectable="0" parent="kjhjxPwAItvc373IeSmL-232">
          <mxGeometry x="0.2934" y="2" relative="1" as="geometry">
            <mxPoint as="offset" />
          </mxGeometry>
        </mxCell>
        <mxCell id="kjhjxPwAItvc373IeSmL-176" value="&lt;span style=&quot;font-size: 14px;&quot;&gt;Invoker&lt;/span&gt;&lt;br style=&quot;font-size: 14px;&quot;&gt;&lt;span style=&quot;font-size: 14px;&quot;&gt;代理调用组件&lt;/span&gt;&lt;span style=&quot;font-size: 14px;&quot;&gt;&lt;br&gt;&lt;/span&gt;" style="rounded=0;whiteSpace=wrap;html=1;movable=1;resizable=1;rotatable=1;deletable=1;editable=1;connectable=1;fillColor=#cdeb8b;strokeColor=#36393d;" vertex="1" parent="1">
          <mxGeometry x="1208" y="977" width="130" height="50" as="geometry" />
        </mxCell>
        <mxCell id="kjhjxPwAItvc373IeSmL-181" style="edgeStyle=orthogonalEdgeStyle;rounded=0;orthogonalLoop=1;jettySize=auto;html=1;entryX=0;entryY=0.5;entryDx=0;entryDy=0;fontFamily=Helvetica;fontSize=14;fontColor=default;" edge="1" parent="1" source="kjhjxPwAItvc373IeSmL-178" target="kjhjxPwAItvc373IeSmL-180">
          <mxGeometry relative="1" as="geometry" />
        </mxCell>
        <mxCell id="kjhjxPwAItvc373IeSmL-182" value="getWrapper" style="edgeLabel;html=1;align=center;verticalAlign=middle;resizable=0;points=[];fontSize=14;fontFamily=Helvetica;fontColor=default;" vertex="1" connectable="0" parent="kjhjxPwAItvc373IeSmL-181">
          <mxGeometry x="-0.269" y="4" relative="1" as="geometry">
            <mxPoint x="8" as="offset" />
          </mxGeometry>
        </mxCell>
        <mxCell id="kjhjxPwAItvc373IeSmL-191" style="edgeStyle=orthogonalEdgeStyle;rounded=0;orthogonalLoop=1;jettySize=auto;html=1;exitX=1;exitY=0.75;exitDx=0;exitDy=0;entryX=0.5;entryY=0;entryDx=0;entryDy=0;fontFamily=Helvetica;fontSize=14;fontColor=default;" edge="1" parent="1" source="kjhjxPwAItvc373IeSmL-178" target="kjhjxPwAItvc373IeSmL-185">
          <mxGeometry relative="1" as="geometry" />
        </mxCell>
        <mxCell id="kjhjxPwAItvc373IeSmL-192" value="调用" style="edgeLabel;html=1;align=center;verticalAlign=middle;resizable=0;points=[];fontSize=14;fontFamily=Helvetica;fontColor=default;" vertex="1" connectable="0" parent="kjhjxPwAItvc373IeSmL-191">
          <mxGeometry x="0.3649" y="2" relative="1" as="geometry">
            <mxPoint x="-7" y="3" as="offset" />
          </mxGeometry>
        </mxCell>
        <mxCell id="kjhjxPwAItvc373IeSmL-220" style="edgeStyle=orthogonalEdgeStyle;rounded=0;orthogonalLoop=1;jettySize=auto;html=1;exitX=0.5;exitY=0;exitDx=0;exitDy=0;entryX=0.5;entryY=1;entryDx=0;entryDy=0;fontFamily=Helvetica;fontSize=14;fontColor=default;" edge="1" parent="1" source="kjhjxPwAItvc373IeSmL-178" target="kjhjxPwAItvc373IeSmL-176">
          <mxGeometry relative="1" as="geometry" />
        </mxCell>
        <mxCell id="kjhjxPwAItvc373IeSmL-221" value="生成" style="edgeLabel;html=1;align=center;verticalAlign=middle;resizable=0;points=[];fontSize=14;fontFamily=Helvetica;fontColor=default;" vertex="1" connectable="0" parent="kjhjxPwAItvc373IeSmL-220">
          <mxGeometry x="-0.25" relative="1" as="geometry">
            <mxPoint x="1" as="offset" />
          </mxGeometry>
        </mxCell>
        <mxCell id="kjhjxPwAItvc373IeSmL-178" value="&lt;span style=&quot;font-size: 14px;&quot;&gt;ProxyFactory&lt;/span&gt;&lt;br style=&quot;font-size: 14px;&quot;&gt;&lt;span style=&quot;font-size: 14px;&quot;&gt;负责生成接口的动态代理&lt;/span&gt;&lt;span style=&quot;font-size: 14px;&quot;&gt;&lt;br&gt;&lt;/span&gt;" style="rounded=0;whiteSpace=wrap;html=1;movable=1;resizable=1;rotatable=1;deletable=1;editable=1;connectable=1;" vertex="1" parent="1">
          <mxGeometry x="1208" y="1060" width="130" height="50" as="geometry" />
        </mxCell>
        <mxCell id="kjhjxPwAItvc373IeSmL-180" value="&lt;span style=&quot;color: rgb(0, 0, 0); font-family: Helvetica; font-size: 14px; font-style: normal; font-variant-ligatures: normal; font-variant-caps: normal; font-weight: 400; letter-spacing: normal; orphans: 2; text-align: center; text-indent: 0px; text-transform: none; widows: 2; word-spacing: 0px; -webkit-text-stroke-width: 0px; background-color: rgb(248, 249, 250); text-decoration-thickness: initial; text-decoration-style: initial; text-decoration-color: initial; float: none; display: inline !important;&quot;&gt;Wrapper&lt;br&gt;(DemoServiceImpl)的代理类&lt;br&gt;&lt;/span&gt;" style="rounded=0;whiteSpace=wrap;html=1;movable=1;resizable=1;rotatable=1;deletable=1;editable=1;connectable=1;" vertex="1" parent="1">
          <mxGeometry x="1438" y="1060" width="130" height="50" as="geometry" />
        </mxCell>
        <mxCell id="kjhjxPwAItvc373IeSmL-189" style="edgeStyle=orthogonalEdgeStyle;rounded=0;orthogonalLoop=1;jettySize=auto;html=1;exitX=0;exitY=0.5;exitDx=0;exitDy=0;entryX=0.5;entryY=1;entryDx=0;entryDy=0;fontFamily=Helvetica;fontSize=14;fontColor=default;" edge="1" parent="1" source="kjhjxPwAItvc373IeSmL-185" target="kjhjxPwAItvc373IeSmL-178">
          <mxGeometry relative="1" as="geometry" />
        </mxCell>
        <mxCell id="kjhjxPwAItvc373IeSmL-190" value="依赖ref" style="edgeLabel;html=1;align=center;verticalAlign=middle;resizable=0;points=[];fontSize=14;fontFamily=Helvetica;fontColor=default;" vertex="1" connectable="0" parent="kjhjxPwAItvc373IeSmL-189">
          <mxGeometry x="0.341" y="2" relative="1" as="geometry">
            <mxPoint x="19" y="11" as="offset" />
          </mxGeometry>
        </mxCell>
        <mxCell id="kjhjxPwAItvc373IeSmL-185" value="&lt;span style=&quot;font-size: 14px;&quot;&gt;DemoServiceImpl&lt;br&gt;&lt;/span&gt;&lt;span style=&quot;font-size: 14px;&quot;&gt;自己的实现类&lt;br&gt;&lt;/span&gt;" style="rounded=0;whiteSpace=wrap;html=1;movable=1;resizable=1;rotatable=1;deletable=1;editable=1;connectable=1;" vertex="1" parent="1">
          <mxGeometry x="1330" y="1130" width="130" height="50" as="geometry" />
        </mxCell>
        <mxCell id="kjhjxPwAItvc373IeSmL-196" value="&lt;span style=&quot;font-size: 14px;&quot;&gt;exporters&lt;br&gt;已发布的exporter&lt;br&gt;&lt;/span&gt;" style="rounded=0;whiteSpace=wrap;html=1;fillColor=#cdeb8b;strokeColor=#36393d;" vertex="1" parent="1">
          <mxGeometry x="893" y="1190" width="130" height="50" as="geometry" />
        </mxCell>
        <mxCell id="kjhjxPwAItvc373IeSmL-235" value="export" style="edgeStyle=orthogonalEdgeStyle;rounded=0;orthogonalLoop=1;jettySize=auto;html=1;exitX=0;exitY=0.5;exitDx=0;exitDy=0;fontFamily=Helvetica;fontSize=14;fontColor=default;" edge="1" parent="1" source="kjhjxPwAItvc373IeSmL-234" target="kjhjxPwAItvc373IeSmL-166">
          <mxGeometry relative="1" as="geometry" />
        </mxCell>
        <mxCell id="kjhjxPwAItvc373IeSmL-234" value="&lt;span style=&quot;font-size: 14px;&quot;&gt;Invoker&lt;/span&gt;&lt;br style=&quot;font-size: 14px;&quot;&gt;&lt;span style=&quot;font-size: 14px;&quot;&gt;代理调用组件&lt;/span&gt;&lt;span style=&quot;font-size: 14px;&quot;&gt;&lt;br&gt;&lt;/span&gt;" style="rounded=0;whiteSpace=wrap;html=1;movable=1;resizable=1;rotatable=1;deletable=1;editable=1;connectable=1;fillColor=#cdeb8b;strokeColor=#36393d;" vertex="1" parent="1">
          <mxGeometry x="1449" y="1290" width="130" height="50" as="geometry" />
        </mxCell>
        <mxCell id="kjhjxPwAItvc373IeSmL-236" style="edgeStyle=orthogonalEdgeStyle;rounded=0;orthogonalLoop=1;jettySize=auto;html=1;exitX=0;exitY=0.5;exitDx=0;exitDy=0;entryX=1;entryY=0.5;entryDx=0;entryDy=0;fontFamily=Helvetica;fontSize=14;fontColor=default;" edge="1" parent="1" source="kjhjxPwAItvc373IeSmL-135" target="kjhjxPwAItvc373IeSmL-234">
          <mxGeometry relative="1" as="geometry" />
        </mxCell>
        <mxCell id="kjhjxPwAItvc373IeSmL-135" value="&lt;span style=&quot;font-size: 14px;&quot;&gt;exportRemote&lt;br&gt;&lt;/span&gt;&lt;span style=&quot;font-size: 14px;&quot;&gt;远程服务实例&lt;br&gt;发布&lt;br&gt;&lt;/span&gt;" style="rounded=0;whiteSpace=wrap;html=1;fillColor=#cce5ff;strokeColor=#36393d;" vertex="1" parent="1">
          <mxGeometry x="1635" y="1290" width="130" height="50" as="geometry" />
        </mxCell>
        <mxCell id="kjhjxPwAItvc373IeSmL-243" style="edgeStyle=orthogonalEdgeStyle;shape=flexArrow;rounded=0;orthogonalLoop=1;jettySize=auto;html=1;exitX=1;exitY=0.5;exitDx=0;exitDy=0;fontFamily=Helvetica;fontSize=14;fontColor=default;" edge="1" parent="1" source="kjhjxPwAItvc373IeSmL-239" target="kjhjxPwAItvc373IeSmL-240">
          <mxGeometry relative="1" as="geometry" />
        </mxCell>
        <mxCell id="kjhjxPwAItvc373IeSmL-239" value="&lt;span style=&quot;font-size: 14px;&quot;&gt;Invoker&lt;/span&gt;&lt;br style=&quot;font-size: 14px;&quot;&gt;&lt;span style=&quot;font-size: 14px;&quot;&gt;服务调用组件&lt;/span&gt;&lt;span style=&quot;font-size: 14px;&quot;&gt;&lt;br&gt;&lt;/span&gt;" style="rounded=0;whiteSpace=wrap;html=1;movable=1;resizable=1;rotatable=1;deletable=1;editable=1;connectable=1;fillColor=#ffcc99;strokeColor=#36393d;" vertex="1" parent="1">
          <mxGeometry x="1050" y="190" width="130" height="50" as="geometry" />
        </mxCell>
        <mxCell id="kjhjxPwAItvc373IeSmL-240" value="&lt;span style=&quot;font-size: 14px;&quot;&gt;Exporter&lt;/span&gt;&lt;br style=&quot;font-size: 14px;&quot;&gt;&lt;span style=&quot;font-size: 14px;&quot;&gt;服务暴露组件&lt;br&gt;&lt;/span&gt;" style="rounded=0;whiteSpace=wrap;html=1;movable=1;resizable=1;rotatable=1;deletable=1;editable=1;connectable=1;fillColor=#ffcc99;strokeColor=#36393d;" vertex="1" parent="1">
          <mxGeometry x="1260" y="190" width="130" height="50" as="geometry" />
        </mxCell>
        <mxCell id="kjhjxPwAItvc373IeSmL-251" style="edgeStyle=orthogonalEdgeStyle;rounded=0;orthogonalLoop=1;jettySize=auto;html=1;exitX=0.5;exitY=1;exitDx=0;exitDy=0;entryX=0.5;entryY=0;entryDx=0;entryDy=0;fontFamily=Helvetica;fontSize=14;fontColor=default;endSize=6;" edge="1" parent="1" source="kjhjxPwAItvc373IeSmL-246" target="kjhjxPwAItvc373IeSmL-247">
          <mxGeometry relative="1" as="geometry" />
        </mxCell>
        <mxCell id="kjhjxPwAItvc373IeSmL-255" value="构造" style="edgeLabel;html=1;align=center;verticalAlign=middle;resizable=0;points=[];fontSize=14;fontFamily=Helvetica;fontColor=default;" vertex="1" connectable="0" parent="kjhjxPwAItvc373IeSmL-251">
          <mxGeometry x="-0.05" y="1" relative="1" as="geometry">
            <mxPoint x="-2" y="-2" as="offset" />
          </mxGeometry>
        </mxCell>
        <mxCell id="kjhjxPwAItvc373IeSmL-246" value="&lt;span style=&quot;font-size: 14px;&quot;&gt;NettyTransporter&lt;/span&gt;&lt;span style=&quot;font-size: 14px;&quot;&gt;&lt;br&gt;&lt;/span&gt;" style="rounded=0;whiteSpace=wrap;html=1;" vertex="1" parent="1">
          <mxGeometry x="1140" y="1380" width="130" height="50" as="geometry" />
        </mxCell>
        <mxCell id="kjhjxPwAItvc373IeSmL-253" style="edgeStyle=orthogonalEdgeStyle;rounded=0;orthogonalLoop=1;jettySize=auto;html=1;exitX=0;exitY=0.5;exitDx=0;exitDy=0;entryX=1;entryY=0.5;entryDx=0;entryDy=0;fontFamily=Helvetica;fontSize=14;fontColor=default;endSize=6;" edge="1" parent="1" source="kjhjxPwAItvc373IeSmL-247" target="kjhjxPwAItvc373IeSmL-248">
          <mxGeometry relative="1" as="geometry" />
        </mxCell>
        <mxCell id="kjhjxPwAItvc373IeSmL-254" value="封装" style="edgeLabel;html=1;align=center;verticalAlign=middle;resizable=0;points=[];fontSize=14;fontFamily=Helvetica;fontColor=default;" vertex="1" connectable="0" parent="kjhjxPwAItvc373IeSmL-253">
          <mxGeometry x="-0.0649" y="2" relative="1" as="geometry">
            <mxPoint x="2" y="-3" as="offset" />
          </mxGeometry>
        </mxCell>
        <mxCell id="kjhjxPwAItvc373IeSmL-265" style="edgeStyle=orthogonalEdgeStyle;rounded=0;orthogonalLoop=1;jettySize=auto;html=1;entryX=1;entryY=0.5;entryDx=0;entryDy=0;fontFamily=Helvetica;fontSize=14;fontColor=default;endSize=6;" edge="1" parent="1" source="kjhjxPwAItvc373IeSmL-247" target="kjhjxPwAItvc373IeSmL-264">
          <mxGeometry relative="1" as="geometry">
            <Array as="points">
              <mxPoint x="1205" y="1675" />
            </Array>
          </mxGeometry>
        </mxCell>
        <mxCell id="kjhjxPwAItvc373IeSmL-266" value="网络监听" style="edgeLabel;html=1;align=center;verticalAlign=middle;resizable=0;points=[];fontSize=14;fontFamily=Helvetica;fontColor=default;" vertex="1" connectable="0" parent="kjhjxPwAItvc373IeSmL-265">
          <mxGeometry x="0.5345" y="2" relative="1" as="geometry">
            <mxPoint y="-4" as="offset" />
          </mxGeometry>
        </mxCell>
        <mxCell id="kjhjxPwAItvc373IeSmL-247" value="&lt;span style=&quot;font-size: 14px;&quot;&gt;启动NettyServer&lt;/span&gt;&lt;br style=&quot;font-size: 14px;&quot;&gt;&lt;span style=&quot;font-size: 14px;&quot;&gt;(基于netty4)&lt;/span&gt;&lt;span style=&quot;font-size: 14px;&quot;&gt;&lt;br&gt;&lt;/span&gt;" style="rounded=0;whiteSpace=wrap;html=1;fillColor=#cce5ff;strokeColor=#36393d;" vertex="1" parent="1">
          <mxGeometry x="1140" y="1470" width="130" height="50" as="geometry" />
        </mxCell>
        <mxCell id="kjhjxPwAItvc373IeSmL-260" style="edgeStyle=orthogonalEdgeStyle;rounded=0;orthogonalLoop=1;jettySize=auto;html=1;exitX=0.5;exitY=1;exitDx=0;exitDy=0;entryX=0.5;entryY=0;entryDx=0;entryDy=0;fontFamily=Helvetica;fontSize=14;fontColor=default;endSize=6;" edge="1" parent="1" source="kjhjxPwAItvc373IeSmL-248" target="kjhjxPwAItvc373IeSmL-259">
          <mxGeometry relative="1" as="geometry" />
        </mxCell>
        <mxCell id="kjhjxPwAItvc373IeSmL-261" value="封装" style="edgeLabel;html=1;align=center;verticalAlign=middle;resizable=0;points=[];fontSize=14;fontFamily=Helvetica;fontColor=default;" vertex="1" connectable="0" parent="kjhjxPwAItvc373IeSmL-260">
          <mxGeometry x="-0.325" y="-1" relative="1" as="geometry">
            <mxPoint y="2" as="offset" />
          </mxGeometry>
        </mxCell>
        <mxCell id="kjhjxPwAItvc373IeSmL-248" value="&lt;span style=&quot;font-size: 14px;&quot;&gt;ExchangerServer&lt;br&gt;&lt;/span&gt;" style="rounded=0;whiteSpace=wrap;html=1;" vertex="1" parent="1">
          <mxGeometry x="920" y="1470" width="130" height="50" as="geometry" />
        </mxCell>
        <mxCell id="kjhjxPwAItvc373IeSmL-252" style="edgeStyle=orthogonalEdgeStyle;rounded=0;orthogonalLoop=1;jettySize=auto;html=1;exitX=0.5;exitY=1;exitDx=0;exitDy=0;fontFamily=Helvetica;fontSize=14;fontColor=default;endSize=6;" edge="1" parent="1" source="kjhjxPwAItvc373IeSmL-247" target="kjhjxPwAItvc373IeSmL-247">
          <mxGeometry relative="1" as="geometry" />
        </mxCell>
        <mxCell id="kjhjxPwAItvc373IeSmL-259" value="&lt;span style=&quot;font-size: 14px;&quot;&gt;DubboProtolcolServer&lt;br&gt;组件体系&lt;br&gt;&lt;/span&gt;" style="rounded=0;whiteSpace=wrap;html=1;" vertex="1" parent="1">
          <mxGeometry x="910" y="1560" width="150" height="60" as="geometry" />
        </mxCell>
        <mxCell id="kjhjxPwAItvc373IeSmL-264" value="&lt;span style=&quot;font-size: 14px;&quot;&gt;本地ip:20880&lt;br&gt;默认地址&lt;br&gt;&lt;/span&gt;" style="rounded=0;whiteSpace=wrap;html=1;" vertex="1" parent="1">
          <mxGeometry x="930" y="1640" width="130" height="50" as="geometry" />
        </mxCell>
        <mxCell id="kjhjxPwAItvc373IeSmL-267" value="&lt;span style=&quot;font-size: 14px;&quot;&gt;ServiceDiscoveryRegistry&lt;/span&gt;&lt;span style=&quot;font-size: 14px;&quot;&gt;&lt;br&gt;&lt;/span&gt;" style="rounded=0;whiteSpace=wrap;html=1;movable=1;resizable=1;rotatable=1;deletable=1;editable=1;connectable=1;" vertex="1" parent="1">
          <mxGeometry x="1290" y="1380" width="181" height="50" as="geometry" />
        </mxCell>
        <mxCell id="kjhjxPwAItvc373IeSmL-276" style="edgeStyle=orthogonalEdgeStyle;rounded=0;orthogonalLoop=1;jettySize=auto;html=1;exitX=0.5;exitY=1;exitDx=0;exitDy=0;fontFamily=Helvetica;fontSize=14;fontColor=default;endSize=6;" edge="1" parent="1" source="kjhjxPwAItvc373IeSmL-269" target="kjhjxPwAItvc373IeSmL-275">
          <mxGeometry relative="1" as="geometry" />
        </mxCell>
        <mxCell id="kjhjxPwAItvc373IeSmL-269" value="&lt;span style=&quot;font-size: 14px;&quot;&gt;ZookeeperServiceDiscovery&lt;/span&gt;&lt;span style=&quot;font-size: 14px;&quot;&gt;&lt;br&gt;&lt;/span&gt;" style="rounded=0;whiteSpace=wrap;html=1;movable=1;resizable=1;rotatable=1;deletable=1;editable=1;connectable=1;" vertex="1" parent="1">
          <mxGeometry x="1280" y="1430" width="201" height="50" as="geometry" />
        </mxCell>
        <mxCell id="kjhjxPwAItvc373IeSmL-277" style="edgeStyle=orthogonalEdgeStyle;rounded=0;orthogonalLoop=1;jettySize=auto;html=1;exitX=0.5;exitY=1;exitDx=0;exitDy=0;entryX=0.5;entryY=0;entryDx=0;entryDy=0;fontFamily=Helvetica;fontSize=14;fontColor=default;endSize=6;" edge="1" parent="1" source="kjhjxPwAItvc373IeSmL-271" target="kjhjxPwAItvc373IeSmL-275">
          <mxGeometry relative="1" as="geometry">
            <Array as="points">
              <mxPoint x="1543" y="1500" />
              <mxPoint x="1465" y="1500" />
            </Array>
          </mxGeometry>
        </mxCell>
        <mxCell id="kjhjxPwAItvc373IeSmL-271" value="&lt;span style=&quot;font-size: 14px;&quot;&gt;服务注册URL&lt;/span&gt;&lt;span style=&quot;font-size: 14px;&quot;&gt;&lt;br&gt;&lt;/span&gt;" style="rounded=0;whiteSpace=wrap;html=1;" vertex="1" parent="1">
          <mxGeometry x="1493" y="1390" width="100" height="40" as="geometry" />
        </mxCell>
        <mxCell id="kjhjxPwAItvc373IeSmL-275" value="&lt;span style=&quot;font-size: 14px;&quot;&gt;服务注册流程&lt;br&gt;&lt;/span&gt;" style="rounded=0;whiteSpace=wrap;html=1;fillColor=#cce5ff;strokeColor=#36393d;" vertex="1" parent="1">
          <mxGeometry x="1400" y="1520" width="130" height="50" as="geometry" />
        </mxCell>
      </root>
    </mxGraphModel>
  </diagram>
</mxfile>
